#!OML:ASF F:\VICON\USERDATA\INSTALL\rory3\rory3.ASF
:FULLY-SPECIFIED
:DEGREES
228
root 0.555737 25.8828 -17.3705 5.82295 -11.059 1.81044
lowerback 15.7648 0.957468 -1.06409
upperback 1.5121 1.10919 0.51592
thorax -7.2614 0.573531 0.913008
lowerneck -12.2972 -2.47865 -10.9534
upperneck 13.0314 -2.51964 7.85311
head 6.20953 -1.15499 4.09096
rclavicle 1.58034e-014 2.3059e-014
rhumerus -45.4192 -7.71017 -82.7756
rradius 36.1584
rwrist 4.24201
rhand -20.8812 8.70498
rfingers 7.12502
rthumb 5.48909 -21.2039
lclavicle 1.58034e-014 2.3059e-014
lhumerus -42.5888 16.0844 84.1581
lradius 35.6031
lwrist 10.6598
lhand -24.9362 17.1534
lfingers 7.12502
lthumb 1.57315 47.1273
rfemur -26.2641 -8.93512 23.1742
rtibia 33.8641
rfoot 20.5726 -3.33906
rtoes 10.3583
lfemur -26.6622 2.59033 -16.6195
ltibia 35.5394
lfoot 15.6557 -5.04436
ltoes 2.47275
229
root 0.547117 25.7207 -17.3748 5.80877 -11.0898 1.87522
lowerback 15.6979 0.873494 -1.0273
upperback 1.34195 1.00569 0.50843
thorax -7.4038 0.523949 0.906352
lowerneck -11.9324 -2.36823 -10.6104
upperneck 13.1788 -2.43667 7.58551
head 6.1777 -1.12687 3.95661
rclavicle 7.35503e-015 -6.75868e-015
rhumerus -45.9304 -7.17032 -82.9399
rradius 36.3387
rwrist 3.77423
rhand -20.3873 9.50651
rfingers 7.12502
rthumb 5.96591 -20.3895
lclavicle 7.35503e-015 -6.75868e-015
lhumerus -43.1305 15.3695 84.1222
lradius 36.0143
lwrist 10.2092
lhand -25.2347 17.0384
lfingers 7.12502
lthumb 1.28489 47.0143
rfemur -26.1997 -8.68682 22.978
rtibia 33.658
rfoot 20.2079 -3.33765
rtoes 10.7784
lfemur -26.5844 2.53433 -16.5617
ltibia 35.2257
lfoot 15.5213 -4.88208
ltoes 1.99721
230
root 0.540418 25.5423 -17.3672 5.79439 -11.3131 1.90412
lowerback 15.5216 0.901275 -0.991977
upperback 1.10406 1.05213 0.517711
thorax -7.56254 0.547731 0.886531
lowerneck -11.3567 -2.24433 -10.4022
upperneck 13.4799 -2.34507 7.37804
head 6.16007 -1.10181 3.86741
rclavicle 2.48481e-014 -1.59028e-014
rhumerus -46.5134 -6.79102 -83.0021
rradius 36.4939
rwrist 3.11982
rhand -19.6682 9.63651
rfingers 7.12502
rthumb 6.66011 -20.2388
lclavicle 2.48481e-014 -1.59028e-014
lhumerus -43.6404 14.618 84.0753
lradius 36.1329
lwrist 9.94947
lhand -25.6476 16.2261
lfingers 7.12502
lthumb 0.886132 46.204
rfemur -26.1251 -8.31657 22.7884
rtibia 33.4591
rfoot 20.0061 -3.37634
rtoes 10.8438
lfemur -26.4175 2.57673 -16.5163
ltibia 34.954
lfoot 15.4389 -4.63919
ltoes 2.28058
231
root 0.538803 25.3562 -17.3502 5.45715 -11.6169 2.08497
lowerback 15.4023 0.881942 -1.1021
upperback 1.22514 1.01392 0.591505
thorax -7.36839 0.532493 1.03801
lowerneck -11.0537 -2.02023 -10.3352
upperneck 13.1324 -2.01489 7.01547
head 5.96423 -0.967125 3.76297
rclavicle -7.05686e-015 2.38542e-014
rhumerus -46.4968 -5.89574 -83.207
rradius 36.8556
rwrist 2.04161
rhand -19.0773 8.96302
rfingers 7.12502
rthumb 7.23057 -20.8934
lclavicle -7.05686e-015 2.38542e-014
lhumerus -43.6358 14.5428 84.0553
lradius 36.2234
lwrist 9.42637
lhand -25.3803 15.3177
lfingers 7.12502
lthumb 1.14425 45.2944
rfemur -25.6773 -7.96013 22.3487
rtibia 33.2186
rfoot 19.7509 -3.27967
rtoes 10.0737
lfemur -25.8814 2.6413 -16.6637
ltibia 34.7199
lfoot 15.3926 -4.29129
ltoes 3.58157
232
root 0.538393 25.1624 -17.3275 5.0967 -12.0081 2.22256
lowerback 15.2844 0.952031 -1.0597
upperback 1.3629 1.11134 0.555522
thorax -7.15609 0.575923 0.957035
lowerneck -10.7438 -1.89048 -9.86713
upperneck 12.5783 -1.87695 6.6484
head 5.71727 -0.902739 3.57225
rclavicle 1.09332e-014 -3.06128e-014
rhumerus -46.5672 -5.37566 -83.4335
rradius 37.3742
rwrist 1.03043
rhand -18.7359 8.1307
rfingers 7.12502
rthumb 7.56009 -21.7142
lclavicle 1.09332e-014 -3.06128e-014
lhumerus -43.6919 14.3909 83.7674
lradius 36.4307
lwrist 8.36239
lhand -24.5681 15.5633
lfingers 7.12502
lthumb 1.92869 45.5343
rfemur -25.1475 -7.5339 21.9164
rtibia 32.9769
rfoot 19.6768 -3.39113
rtoes 10.236
lfemur -25.2587 2.74042 -16.7702
ltibia 34.5405
lfoot 15.4161 -3.82491
ltoes 5.27653
